<svg xmlns="http://www.w3.org/2000/svg" viewBox="0 0 64 64" role="img" aria-label="Aether Proxy">
  <defs>
    <linearGradient id="aether-g" x1="10" y1="54" x2="54" y2="10" gradientUnits="userSpaceOnUse">
      <stop offset="0%" stop-color="#6366f1"/>
      <stop offset="100%" stop-color="#8b5cf6"/>
    </linearGradient>
  </defs>
  <rect x="1" y="1" width="62" height="62" rx="15" fill="#0c0e12" stroke="#1c2027" stroke-width="1"/>
  <path fill="url(#aether-g)" d="M32 14c-1.2 0-2.3.7-2.8 1.8L16.2 44.5c-.6 1.3.4 2.8 1.8 2.8h3.4c1 0 1.9-.6 2.3-1.5l2.3-5.2h11.8l2.3 5.2c.4.9 1.3 1.5 2.3 1.5h3.4c1.4 0 2.4-1.5 1.8-2.8L34.8 15.8c-.5-1.1-1.6-1.8-2.8-1.8zm-1.2 17.2 4.2-9.6 4.2 9.6H30.8z"/>
  <circle cx="48" cy="18" r="3" fill="#34d399" opacity=".9"/>
</svg>